<?xml version="1.0" standalone="no"?>
<!DOCTYPE svg PUBLIC "-//W3C//DTD SVG 20010904//EN"
 "http://www.w3.org/TR/2001/REC-SVG-20010904/DTD/svg10.dtd">
<svg version="1.0" xmlns="http://www.w3.org/2000/svg"
 width="1920.000000pt" height="5479.000000pt" viewBox="0 0 1920.000000 5479.000000"
 preserveAspectRatio="xMidYMid meet">
<metadata>
Created by potrace 1.16, written by Peter Selinger 2001-2019
</metadata>
<g transform="translate(0.000000,5479.000000) scale(0.100000,-0.100000)"
fill="#000000" stroke="none">
<path d="M1913 43382 c-10 -6 827 -6 1412 1 127 1 -137 3 -585 5 -448 1 -820
-2 -827 -6z"/>
<path d="M15905 43383 c585 -7 1422 -7 1412 -1 -7 4 -379 7 -827 6 -448 -2
-711 -4 -585 -5z"/>
<path d="M3482 42083 c856 -2 2260 -2 3120 0 860 1 159 2 -1557 2 -1716 0
-2419 -1 -1563 -2z"/>
<path d="M12622 42083 c856 -2 2260 -2 3120 0 860 1 159 2 -1557 2 -1716 0
-2419 -1 -1563 -2z"/>
<path d="M9602 41463 l-2 -263 -2607 -3 -2608 -2 2607 -3 2608 -2 3 -252 2
-253 3 252 2 253 2618 3 2617 2 -2617 3 -2618 2 -3 263 -2 262 -3 -262z"/>
<path d="M2780 39140 c0 -11 -1 -10 265 -50 110 -16 227 -34 260 -40 47 -8
859 -128 975 -144 14 -2 60 -9 102 -16 69 -11 120 -8 106 6 -3 2 -50 11 -104
18 -55 8 -234 35 -399 60 -494 75 -1175 176 -1190 176 -8 0 -15 -4 -15 -10z"/>
<path d="M16160 39115 c-118 -18 -233 -36 -255 -39 -75 -10 -850 -126 -910
-137 -115 -19 -260 -37 -267 -32 -5 2 -8 -1 -8 -7 0 -20 30 -23 108 -10 42 7
88 14 102 16 14 2 149 22 300 44 151 23 363 54 470 70 741 110 730 108 730
121 0 14 -34 10 -270 -26z"/>
<path d="M9602 31248 l-2 -218 -2607 -3 -2608 -2 2607 -3 2608 -2 3 -207 2
-208 3 207 2 208 2618 3 2617 2 -2617 3 -2618 2 -3 218 -2 217 -3 -217z"/>
<path d="M9602 29738 l-2 -308 -2607 -3 -2608 -2 2607 -3 2608 -2 3 -207 2
-208 3 207 2 208 2618 3 2617 2 -2617 3 -2618 2 -3 308 -2 307 -3 -307z"/>
<path d="M2777 28104 c2 -7 19 -15 36 -18 47 -8 478 -74 667 -101 132 -19 668
-99 805 -120 163 -25 187 -27 197 -17 9 9 -38 20 -162 36 -19 2 -80 11 -135
20 -55 10 -266 42 -470 72 -203 30 -460 68 -570 85 -385 57 -373 56 -368 43z"/>
<path d="M16185 28080 c-137 -21 -313 -48 -390 -59 -723 -111 -994 -151 -1047
-154 -16 -1 -28 -6 -28 -10 0 -16 31 -18 102 -7 40 6 87 13 103 15 17 3 167
25 335 50 168 26 379 57 470 70 91 13 284 42 430 64 146 23 266 41 266 41 1 0
4 7 8 15 3 8 4 14 3 14 -1 -1 -114 -18 -252 -39z"/>
<path d="M9602 25223 l-2 -263 -2612 -3 -2613 -2 2612 -3 2613 -2 3 -237 2
-238 3 237 2 238 2623 3 2622 2 -2622 3 -2623 2 -3 263 -2 262 -3 -262z"/>
<path d="M2780 13376 c9 -8 78 -23 165 -36 83 -12 204 -30 270 -40 66 -11 336
-51 600 -90 439 -64 562 -83 636 -96 17 -3 28 0 32 9 4 12 -9 16 -61 22 -37 4
-78 9 -92 11 -14 1 -65 10 -115 18 -78 14 -660 101 -935 141 -52 8 -187 28
-300 45 -112 16 -206 30 -209 30 -3 0 1 -6 9 -14z"/>
<path d="M16325 13375 c-44 -7 -174 -27 -290 -44 -626 -93 -960 -143 -1040
-157 -49 -8 -101 -17 -115 -18 -14 -2 -55 -7 -92 -11 -52 -6 -65 -10 -61 -22
4 -9 15 -12 32 -9 74 13 197 32 636 96 264 39 521 77 570 85 50 8 171 26 270
41 106 15 186 32 195 40 18 17 11 17 -105 -1z"/>
</g>
</svg>
